#!OML:ASF E:/inclinewalkrobotboard/Project1/Captureday1/Session1/subject1.ASF
:FULLY-SPECIFIED
:DEGREES
38
root 0 0 0 1.9517769700856427 -3.762460910009817 2.7657269049925937
lowerback 12.281518138121822 0.8266955901667417 -0.7437871908811967
upperback -4.072702384551171 0.9774343822636538 -0.725552124047477
thorax -11.280088900040054 0.4541335067625327 -0.5872119170665597
lowerneck -7.10694801456248 1.4411935489745347 4.327299383133478
upperneck 19.287194983584335 2.9381658711879277 -8.29700005202686
head 7.216312180134893 1.0120888863611048 -3.203854185434529
rclavicle -1.19289567402473E-15 -1.8983656506903232E-15
rhumerus 16.823323885435556 12.457916366921031 -50.75237903324552
rradius 68.41307301271885
rwrist 24.448265766794258
rhand -32.95522459518202 -49.25700987473993
rfingers 7.125019999999964
rthumb -6.219655977290241 -79.3465512048935
lclavicle 3.32949320741578E-16 -5.370913586326227E-17
lhumerus 17.882159567668502 -13.579318041442434 49.30333360245466
lradius 67.26660942494284
lwrist -18.34886604091698
lhand -44.03550600385732 -60.870658066100084
lfingers 7.1250199999999575
lthumb -16.86892204291536 -31.435079525485488
rfemur -35.04293669810875 -1.6534782738513885 15.39845438364677
rtibia 54.454253011605346
rfoot -18.150679780492325 -15.893636945258075
rtoes -11.241465058366602
lfemur -23.207940426507697 4.694027327127339 -15.438452201146674
ltibia 62.78104309265866
lfoot -16.182619356376613 -3.270048863092747
ltoes -12.91696085154404
39
root 0 0 0 2.1860769256574923 -3.887114946124779 2.5832132751146633
lowerback 12.223489410655585 0.9030095160148685 -0.5517430760276608
upperback -4.104664602231303 1.1031720677268655 -0.7269037393662555
thorax -11.266244170663677 0.5094803312691056 -0.7174961990816571
lowerneck -7.076358924028467 1.4270692086243646 4.333664389437144
upperneck 19.161290467302045 2.913974757287 -8.266957368824954
head 7.168741157850817 1.005997075059737 -3.1953411455911347
rclavicle -1.3734954528435639E-15 -1.709091944500195E-15
rhumerus 17.25425843091307 13.026669131726143 -51.07655685333474
rradius 68.75973363583807
rwrist 24.080414683426017
rhand -32.9750763984841 -49.249678115509084
rfingers 7.125019999999964
rthumb -6.240696400394361 -79.32261452666327
lclavicle 4.0749473669435487E-16 1.6183949803539997E-16
lhumerus 17.989236534360444 -13.803540540588676 49.37789138197412
lradius 67.4059575694163
lwrist -18.220644549930846
lhand -44.03746605587387 -60.680666924395595
lfingers 7.1250199999999575
lthumb -16.86904058435687 -31.24705032950978
rfemur -33.04649066222179 -1.0419224315842226 16.403997442070306
rtibia 50.48597287083761
rfoot -22.01968603148063 -16.672161305015507
rtoes -13.280208329736823
lfemur -24.58408636137566 3.983875420664413 -15.472156901733445
ltibia 55.990386383465065
lfoot -20.856660153006327 0.2744719157855635
ltoes -13.714806593757313
40
root 0 0 0 2.4414322211337196 -4.049011499021078 2.4045223727756473
lowerback 12.130318669260301 1.0050261220836276 -0.35660745953334805
upperback -4.14256180555437 1.2616418971129575 -0.7452797494809232
thorax -11.236116293442944 0.580682382970907 -0.8708574318683626
lowerneck -7.0306920229869725 1.3981630220971792 4.325927405014972
upperneck 19.041261912450505 2.866348918019998 -8.20354544380484
head 7.121269556796645 0.9912467826711703 -3.1755462207222127
rclavicle -1.4742463361761034E-15 -1.452378419005291E-15
rhumerus 17.64833510715531 13.562580735265884 -51.4048297379163
rradius 69.07729988078837
rwrist 23.71370124971285
rhand -32.98625080380806 -49.20831109309807
rfingers 7.125019999999964
rthumb -6.253187446752737 -79.26729197843255
lclavicle 5.421092331437087E-16 4.3455558966248074E-16
lhumerus 18.030698555508927 -13.943411349145938 49.44172338505457
lradius 67.47574201013947
lwrist -18.126457173103624
lhand -44.02565591234658 -60.50531254308289
lfingers 7.1250199999999575
lthumb -16.856245961631927 -31.071094431390872
rfemur -29.98574740636655 -0.2616638493410912 17.768368329871812
rtibia 45.723893081458016
rfoot -26.03874708423457 -17.164769699608478
rtoes -15.786617011338942
lfemur -25.006641228087503 2.96921790204323 -15.638446634615141
ltibia 47.09249084751454
lfoot -26.035982362120986 4.065395554277439
ltoes -15.388602124152186
41
root 0 0 0 2.7325573853172287 -4.244605280485832 2.232867381122174
lowerback 11.970420499495056 1.1350332444361513 -0.16838572521336115
upperback -4.183533138140824 1.4528619909258063 -0.7824018736568107
thorax -11.166664645936123 0.6684380162708579 -1.0416812624730543
lowerneck -6.986603866843969 1.3439744596402126 4.290410286681462
upperneck 18.94206489086768 2.7805491220905525 -8.083215135646128
head 7.081938495121149 0.9612279239607623 -3.1360875957560728
rclavicle -1.433190857645839E-15 -1.0279195247479972E-15
rhumerus 17.951588590083546 14.01677822255875 -51.7406542798491
rradius 69.32141777700534
rwrist 23.352203713624085
rhand -32.97608772310546 -49.0848588267859
rfingers 7.125019999999963
rthumb -6.24403863044158 -79.13214790214812
lclavicle 8.106393117073707E-16 8.270088676605773E-16
lhumerus 17.925076883080095 -13.919455145526708 49.502267029510286
lradius 67.39697010522157
lwrist -18.083149966047944
lhand -43.97923771191702 -60.315677247198686
lfingers 7.125019999999957
lthumb -16.810566931506738 -30.87452708940621
rfemur -26.05979091614546 1.1287663857756816 19.499532603115547
rtibia 37.39505726782096
rfoot -29.575253430363155 -17.120216755708203
rtoes -19.074798009513966
lfemur -23.675874530634694 1.4400654041124956 -15.796544406650476
ltibia 37.008927758658956
lfoot -29.70181133770674 6.769126958310289
ltoes -18.064510030709307
